<svg width="200" height="200" viewBox="0 0 200 200" fill="none" xmlns="http://www.w3.org/2000/svg">
<path fill-rule="evenodd" clip-rule="evenodd" d="M96.4683 19.974C96.6063 20.0662 114.524 30.6329 175.846 66.8087L175.962 128.686L185.553 137.384C190.843 142.16 195.191 146.197 195.214 146.382C195.26 146.589 195.007 146.681 194.409 146.681C193.949 146.658 191.073 146.428 182.471 145.643L181.459 144.813C180.907 144.351 171.959 136.784 161.586 128.017C149.464 117.796 142.08 111.705 140.884 110.99C139.872 110.39 138.147 109.537 137.043 109.145C135.939 108.729 134.26 108.222 133.34 108.014C132.443 107.829 130.695 107.599 129.498 107.53C128.279 107.46 126.416 107.53 125.243 107.691C124.116 107.829 122.322 108.222 121.264 108.522C120.229 108.822 118.619 109.444 117.699 109.883C116.802 110.321 115.422 111.083 114.662 111.59C113.903 112.098 108.015 116.943 101.552 122.341C95.0882 127.763 89.6828 132.308 89.5218 132.447C89.2688 132.677 90.4649 133.831 95.2032 138.03C98.4924 140.96 101.184 143.452 101.207 143.567C101.207 143.705 99.8265 145.39 98.1014 147.328C96.3993 149.242 94.9042 150.834 94.7662 150.834C94.6282 150.834 89.0158 145.92 82.2764 139.922C75.5599 133.946 68.6365 127.786 66.9344 126.286C65.2323 124.787 63.2081 123.218 62.4491 122.803C61.69 122.387 60.4019 121.811 59.5739 121.534C58.5618 121.188 57.2507 120.98 55.5486 120.911C53.4325 120.796 52.6964 120.865 51.0633 121.28C49.9823 121.557 48.4872 122.088 47.7281 122.457C46.9001 122.872 39.9076 128.201 30.0629 135.953C21.1154 142.99 13.7549 148.758 13.6859 148.758C13.6169 148.758 11.3397 147.835 8.62556 146.681C5.17534 145.228 3.70323 144.513 3.72623 144.282C3.77223 144.097 7.45248 141.075 20.0113 131.224L20.1263 68.6313L58.1708 44.2219C79.1022 30.8175 96.3303 19.9047 96.4683 19.974ZM30.247 73.9608C30.132 118.788 30.155 123.218 30.408 123.01C30.569 122.872 32.6391 121.234 35.0083 119.388C37.4004 117.519 39.9306 115.604 40.6436 115.097C41.3797 114.612 42.5988 113.897 43.3578 113.505C44.1169 113.136 45.52 112.559 46.463 112.236C47.4061 111.913 49.1772 111.475 50.3733 111.244C52.0064 110.967 53.3865 110.898 55.7786 110.99C58.2398 111.083 59.5509 111.244 61.299 111.705C62.6331 112.051 64.6572 112.836 66.1293 113.574C67.5324 114.266 69.2345 115.258 69.9476 115.812C70.6606 116.366 73.5128 118.811 76.273 121.28C79.0562 123.726 81.4483 125.779 81.5863 125.825C81.7473 125.871 87.4517 121.234 94.2371 115.512C101.046 109.791 107.394 104.553 108.337 103.861C109.28 103.169 111.304 101.992 112.822 101.231C114.34 100.47 116.365 99.593 117.308 99.2931C118.251 98.9701 120.114 98.4856 121.448 98.2087C123.495 97.7473 124.53 97.6781 128.348 97.6781C132.121 97.6781 133.202 97.7704 135.134 98.1857C136.399 98.4856 138.377 99.0162 139.504 99.4084C140.631 99.8006 142.77 100.723 144.219 101.485C145.669 102.246 147.739 103.538 148.82 104.346C149.901 105.153 154.179 108.937 158.365 112.721L165.956 119.619C166.048 77.7445 166.002 72.6919 165.772 72.4842C165.634 72.3458 150.062 63.1403 131.224 52.02C112.385 40.8996 96.7903 31.7634 96.6063 31.6942C96.3993 31.648 82.0234 40.715 63.2541 52.7813L30.247 73.9608ZM128.118 144.421C129.452 144.397 131.569 144.536 132.834 144.72C134.099 144.928 136.008 145.343 137.089 145.666C138.17 145.989 140.125 146.728 141.459 147.304C142.793 147.881 144.84 148.896 146.014 149.542C147.187 150.188 148.13 150.788 148.13 150.904C148.13 150.996 148.061 151.111 147.946 151.18C147.854 151.227 146.336 150.973 144.564 150.581C142.793 150.188 140.263 149.727 138.929 149.542C137.595 149.358 135.272 149.196 133.754 149.196C132.236 149.196 130.12 149.358 129.038 149.542C127.957 149.727 126.347 150.119 125.473 150.373C124.576 150.65 122.989 151.18 121.908 151.573C120.827 151.965 118.596 152.888 116.963 153.603C115.307 154.341 110.407 156.602 106.037 158.632C101.667 160.663 96.0773 163.201 93.6161 164.285C91.155 165.346 88.3028 166.592 85.4506 167.769L86.4857 168.069C87.0607 168.253 89.0158 168.692 90.8559 169.061C92.696 169.43 95.5252 169.914 97.1813 170.122C99.2745 170.399 101.874 170.537 105.922 170.537C110.2 170.537 112.408 170.445 114.547 170.145C116.135 169.914 118.619 169.476 120.068 169.153C121.517 168.83 124.208 168.069 126.048 167.446C127.888 166.846 134.099 164.562 139.849 162.37C145.6 160.201 152.684 157.548 155.605 156.487C158.503 155.426 162.437 154.087 164.346 153.511C166.232 152.911 168.785 152.172 169.981 151.873C171.177 151.573 173.155 151.134 174.351 150.927C175.823 150.65 177.733 150.511 180.217 150.511C182.885 150.511 184.426 150.604 185.852 150.904C186.933 151.134 188.888 151.688 190.222 152.126C191.557 152.565 194.225 153.741 196.18 154.71C198.112 155.679 199.814 156.671 199.906 156.902C200.067 157.179 200.021 157.294 199.768 157.294C199.584 157.294 198.457 157.087 197.284 156.81C196.134 156.556 194.087 156.141 192.753 155.887C191.419 155.633 188.842 155.356 187.002 155.287C184.426 155.172 183.115 155.241 181.252 155.564C179.918 155.772 177.342 156.441 175.501 157.064C173.661 157.663 170.763 158.794 169.061 159.555C167.359 160.317 162.897 162.347 159.17 164.1C155.444 165.831 150.522 168.092 148.245 169.107C145.968 170.122 142.195 171.76 139.849 172.752C137.503 173.721 134.03 175.105 132.144 175.821C130.235 176.513 127.75 177.366 126.623 177.689C125.496 178.012 123.265 178.52 121.678 178.843C120.091 179.166 117.446 179.581 115.813 179.789C114.156 179.973 110.913 180.135 108.567 180.135C106.221 180.135 102.955 179.973 101.322 179.789C99.6655 179.604 96.9743 179.166 95.3412 178.843C93.6851 178.497 90.9939 177.851 89.3608 177.366C87.7047 176.882 85.1286 176.005 83.6105 175.405C82.0924 174.828 79.5622 173.721 75.0999 171.575L72.2247 172.291C70.6376 172.66 67.9004 173.213 66.1293 173.49C63.4151 173.906 61.943 173.998 56.8137 173.998C52.0984 174.021 50.0973 173.929 47.9581 173.606C46.44 173.375 44.0019 172.937 42.5528 172.614C41.1037 172.314 38.6655 171.668 37.1474 171.229C35.6293 170.768 32.9382 169.845 31.167 169.13C29.3959 168.438 26.3827 167.077 24.4966 166.084C22.5875 165.115 19.7583 163.477 18.1712 162.485C16.5841 161.47 13.8929 159.601 12.1908 158.309C10.4887 156.994 8.02751 154.987 6.71643 153.787C5.42834 152.611 3.38122 150.557 2.18514 149.219C0.989066 147.881 0 146.658 0 146.52C0 146.359 0.092002 146.22 0.230011 146.22C0.36802 146.22 1.56409 146.935 2.92117 147.812C4.30127 148.689 6.80844 150.188 8.51055 151.18C10.2127 152.172 12.8348 153.58 14.3069 154.318C15.802 155.079 18.4472 156.279 20.1723 157.041C21.9204 157.779 24.5196 158.817 25.9227 159.348C27.3488 159.855 30.109 160.755 32.0181 161.309C33.9502 161.885 37.0784 162.647 38.9875 163.016C40.8737 163.408 43.7719 163.87 45.428 164.077C47.0611 164.262 49.9133 164.493 51.7534 164.585C53.6855 164.677 56.5837 164.608 58.6538 164.446C60.609 164.308 62.4721 164.123 62.7941 164.054C63.3231 163.939 63.2541 163.823 61.644 162.531C60.701 161.77 58.1248 159.348 55.9396 157.133C53.3405 154.503 52.0064 153.003 52.0524 152.749C52.0984 152.519 52.2134 152.357 52.3514 152.38C52.4664 152.403 53.8465 153.234 55.4336 154.249C57.0207 155.241 59.8499 156.948 61.759 158.009C63.6451 159.048 66.3823 160.478 67.7854 161.147C69.2115 161.816 70.5686 162.37 70.7756 162.37C71.0056 162.37 71.9027 162.162 72.7998 161.885C73.6738 161.609 77.147 160.386 80.5053 159.14C83.8635 157.894 90.4879 155.402 95.2262 153.603C99.9645 151.803 106.29 149.519 109.257 148.527C112.224 147.535 115.905 146.405 117.423 146.012C118.941 145.643 121.057 145.159 122.138 144.974C123.219 144.79 124.461 144.582 124.898 144.536C125.335 144.49 126.784 144.444 128.118 144.421ZM81.1953 56.0113H94.3062V69.3927H81.1953V56.0113ZM100.057 56.0113H113.374L113.282 69.2773L100.057 69.3927V56.0113ZM81.1953 74.6991H94.3062V88.0804H81.1953V74.6991ZM100.057 74.6991H113.374L113.282 87.9651L100.057 88.0804V74.6991Z" fill="black"/>
</svg>
