<svg width="80" height="43" viewBox="0 0 80 43" fill="none" xmlns="http://www.w3.org/2000/svg">
<g clip-path="url(#clip0_218_730)">
<path fill-rule="evenodd" clip-rule="evenodd" d="M37.8858 6.75066e-05C37.9146 0.0190938 41.6498 2.1976 54.4331 9.65591L54.4571 22.413L56.4566 24.2062C57.5594 25.1909 58.4657 26.0233 58.4705 26.0613C58.48 26.1041 58.4273 26.1231 58.3026 26.1231C58.2067 26.1184 57.6074 26.0708 55.8141 25.909L55.6031 25.7378C55.488 25.6427 53.6228 24.0826 51.4603 22.275C48.9334 20.1679 47.3942 18.9122 47.1449 18.7647C46.9339 18.641 46.5743 18.4651 46.3441 18.3842C46.1139 18.2986 45.7639 18.1939 45.5721 18.1511C45.3851 18.1131 45.0207 18.0655 44.7714 18.0512C44.5172 18.0369 44.1289 18.0512 43.8843 18.0845C43.6494 18.1131 43.2753 18.1939 43.0548 18.2557C42.8391 18.3176 42.5034 18.4461 42.3116 18.5364C42.1245 18.6267 41.8369 18.7838 41.6786 18.8883C41.5204 18.993 40.2929 19.9919 38.9456 21.1049C37.5982 22.2227 36.4714 23.1598 36.4378 23.1883C36.3851 23.2359 36.6344 23.4737 37.6222 24.3394C38.3078 24.9435 38.8688 25.4572 38.8736 25.4809C38.8736 25.5095 38.5859 25.8568 38.2263 26.2563C37.8715 26.6511 37.5598 26.9793 37.5311 26.9793C37.5023 26.9793 36.3323 25.9661 34.9274 24.7295C33.5273 23.4975 32.084 22.2275 31.7292 21.9183C31.3744 21.6091 30.9525 21.2857 30.7942 21.2C30.6359 21.1145 30.3674 20.9955 30.1948 20.9384C29.9838 20.8671 29.7105 20.8243 29.3557 20.81C28.9145 20.7863 28.7611 20.8006 28.4207 20.8861C28.1953 20.9432 27.8837 21.0526 27.7254 21.1287C27.5528 21.2143 26.0951 22.3131 24.043 23.9114C22.1777 25.3621 20.6433 26.5512 20.629 26.5512C20.6145 26.5512 20.1398 26.361 19.5741 26.1231C18.8548 25.8235 18.5479 25.676 18.5527 25.6284C18.5624 25.5904 19.3295 24.9673 21.9476 22.9362L21.9715 10.0316L29.9024 4.99921C34.2657 2.23565 37.8571 -0.0142022 37.8858 6.75066e-05ZM24.0813 11.1305C24.0573 20.3725 24.0621 21.2857 24.1149 21.2429C24.1484 21.2143 24.5799 20.8766 25.0738 20.4961C25.5725 20.1108 26.0999 19.716 26.2486 19.6114C26.402 19.5115 26.6562 19.364 26.8144 19.2832C26.9726 19.2071 27.2651 19.0881 27.4618 19.0216C27.6583 18.955 28.0275 18.8646 28.2769 18.8171C28.6173 18.76 28.905 18.7457 29.4037 18.7647C29.9167 18.7838 30.19 18.8171 30.5545 18.9122C30.8325 18.9836 31.2545 19.1452 31.5614 19.2975C31.8538 19.4401 32.2087 19.6446 32.3573 19.7588C32.5059 19.873 33.1005 20.3772 33.6759 20.8861C34.2561 21.3903 34.7548 21.8136 34.7836 21.8232C34.8171 21.8327 36.0063 20.8766 37.4208 19.697C38.84 18.5173 40.1635 17.4376 40.36 17.2949C40.5566 17.1523 40.9786 16.9097 41.2951 16.7527C41.6115 16.5957 42.0335 16.415 42.2301 16.3532C42.4266 16.2865 42.8151 16.1867 43.0931 16.1296C43.5199 16.0344 43.7357 16.0202 44.5317 16.0202C45.318 16.0202 45.5433 16.0392 45.9461 16.1248C46.2098 16.1867 46.6222 16.2961 46.8571 16.3769C47.0921 16.4577 47.538 16.6481 47.8401 16.805C48.1422 16.962 48.5738 17.2284 48.7991 17.3948C49.0245 17.5613 49.9164 18.3414 50.789 19.1215L52.3713 20.5437C52.3905 11.9105 52.3809 10.8689 52.333 10.826C52.3042 10.7975 49.058 8.89962 45.131 6.60693C41.2039 4.31427 37.953 2.43067 37.9146 2.4164C37.8715 2.40688 34.8746 4.27621 30.962 6.7639L24.0813 11.1305ZM44.4837 25.657C44.7618 25.6522 45.2029 25.6807 45.4666 25.7188C45.7304 25.7616 46.1284 25.8472 46.3537 25.9139C46.5791 25.9804 46.9866 26.1326 47.2647 26.2515C47.5428 26.3704 47.9696 26.5798 48.2141 26.7129C48.4587 26.8461 48.6552 26.9698 48.6552 26.9936C48.6552 27.0126 48.6409 27.0363 48.6169 27.0506C48.5978 27.0602 48.2812 27.0079 47.912 26.9269C47.5428 26.8461 47.0154 26.751 46.7373 26.7129C46.4591 26.6749 45.9749 26.6416 45.6585 26.6416C45.3419 26.6416 44.9008 26.6749 44.6755 26.7129C44.4501 26.751 44.1145 26.8318 43.9323 26.8842C43.7452 26.9412 43.4144 27.0506 43.1891 27.1315C42.9637 27.2124 42.4986 27.4026 42.1581 27.5501C41.8129 27.7023 40.7916 28.1684 39.8805 28.587C38.9695 29.0056 37.8044 29.5288 37.2913 29.7524C36.7783 29.9712 36.1837 30.2281 35.5891 30.4707L35.8049 30.5324C35.9247 30.5705 36.3323 30.6609 36.7159 30.737C37.0995 30.8131 37.6893 30.913 38.0345 30.9558C38.4709 31.0129 39.0127 31.0414 39.8566 31.0414C40.7485 31.0414 41.2087 31.0223 41.6547 30.9605C41.9855 30.913 42.5034 30.8226 42.8055 30.756C43.1076 30.6894 43.6685 30.5324 44.0521 30.404C44.4358 30.2803 45.7304 29.8095 46.9291 29.3576C48.1278 28.9104 49.6046 28.3635 50.2136 28.1446C50.8178 27.9258 51.6377 27.6499 52.0357 27.5311C52.4289 27.4074 52.9611 27.2552 53.2105 27.1934C53.4598 27.1315 53.8721 27.0411 54.1215 26.9983C54.4284 26.9412 54.8264 26.9127 55.3442 26.9127C55.9004 26.9127 56.2217 26.9318 56.519 26.9936C56.7443 27.0411 57.1518 27.1553 57.4299 27.2457C57.7081 27.336 58.2643 27.5786 58.6718 27.7784C59.0746 27.9782 59.4295 28.1827 59.4486 28.2303C59.4822 28.2874 59.4726 28.3111 59.4198 28.3111C59.3815 28.3111 59.1465 28.2683 58.902 28.2113C58.6623 28.1589 58.2355 28.0733 57.9574 28.0209C57.6793 27.9687 57.1423 27.9116 56.7587 27.8973C56.2217 27.8735 55.9484 27.8878 55.5599 27.9544C55.2818 27.9972 54.7448 28.1352 54.3612 28.2636C53.9777 28.3872 53.3735 28.6203 53.0186 28.7773C52.6638 28.9343 51.7336 29.3528 50.9568 29.7143C50.18 30.0711 49.1539 30.5372 48.6792 30.7465C48.2045 30.9558 47.4182 31.2935 46.9291 31.498C46.44 31.6978 45.716 31.9832 45.3228 32.1306C44.9248 32.2734 44.407 32.4493 44.172 32.5159C43.9371 32.5826 43.4719 32.6871 43.1411 32.7538C42.8103 32.8203 42.2588 32.906 41.9184 32.9487C41.5731 32.9868 40.8971 33.0201 40.408 33.0201C39.9189 33.0201 39.238 32.9868 38.8976 32.9487C38.5524 32.9107 37.9913 32.8203 37.6509 32.7538C37.3057 32.6824 36.7447 32.5492 36.4043 32.4493C36.059 32.3494 35.522 32.1687 35.2055 32.0451C34.8891 31.9261 34.3616 31.6978 33.4314 31.2554L32.832 31.4029C32.5011 31.479 31.9305 31.5931 31.5614 31.6502C30.9956 31.7359 30.6887 31.7549 29.6194 31.7549C28.6364 31.7596 28.2193 31.7406 27.7734 31.6741C27.4569 31.6265 26.9486 31.5361 26.6465 31.4695C26.3445 31.4076 25.8363 31.2745 25.5198 31.1841C25.2033 31.089 24.6423 30.8987 24.2731 30.7513C23.9038 30.6085 23.2758 30.3279 22.8825 30.1234C22.4846 29.9236 21.8948 29.5859 21.5639 29.3814C21.2331 29.1721 20.6721 28.7868 20.3173 28.5204C19.9625 28.2493 19.4494 27.8354 19.1761 27.5881C18.9076 27.3456 18.4808 26.9222 18.2315 26.6463C17.9822 26.3704 17.776 26.1184 17.776 26.0898C17.776 26.0565 17.7951 26.028 17.8239 26.028C17.8527 26.028 18.102 26.1755 18.3849 26.3562C18.6726 26.5369 19.1952 26.8461 19.5501 27.0506C19.9049 27.2552 20.4515 27.5453 20.7584 27.6975C21.0701 27.8545 21.6215 28.1019 21.9811 28.2588C22.3455 28.411 22.8873 28.6251 23.1798 28.7345C23.4771 28.8392 24.0525 29.0247 24.4505 29.1388C24.8532 29.2577 25.5054 29.4147 25.9034 29.4908C26.2965 29.5716 26.9007 29.6667 27.2459 29.7096C27.5864 29.7477 28.181 29.7952 28.5645 29.8142C28.9673 29.8332 29.5715 29.8189 30.0031 29.7857C30.4106 29.7571 30.799 29.7191 30.8661 29.7048C30.9764 29.681 30.962 29.6573 30.6264 29.3908C30.4298 29.2339 29.8927 28.7345 29.4372 28.2778C28.8954 27.7356 28.6173 27.4264 28.6269 27.3741C28.6365 27.3265 28.6605 27.2932 28.6892 27.2979C28.7131 27.3028 29.0009 27.474 29.3318 27.6832C29.6626 27.8878 30.2524 28.2398 30.6504 28.4586C31.0435 28.6727 31.6141 28.9675 31.9066 29.1055C32.2039 29.2434 32.4868 29.3576 32.5299 29.3576C32.5779 29.3576 32.7649 29.3147 32.9519 29.2577C33.1341 29.2006 33.8581 28.9485 34.5582 28.6917C35.2583 28.4348 36.6391 27.9211 37.627 27.5501C38.6147 27.1791 39.9333 26.7082 40.5518 26.5036C41.1704 26.2991 41.9376 26.066 42.254 25.9852C42.5705 25.909 43.0117 25.8092 43.237 25.7711C43.4624 25.7331 43.7213 25.6903 43.8124 25.6807C43.9035 25.6713 44.2056 25.6617 44.4837 25.657ZM49.6238 36.5019C49.7772 36.4972 50.1129 36.5162 50.3671 36.5447C50.626 36.5733 51 36.6494 51.1965 36.716C51.3931 36.7778 51.6425 36.8825 51.748 36.9443C51.8535 37.0061 52.0405 37.1584 52.1604 37.2868C52.2802 37.4104 52.4337 37.6102 52.5056 37.7291C52.5727 37.8481 52.683 38.0859 52.7501 38.2666C52.822 38.4426 52.8988 38.6852 52.9275 38.8136C52.9563 38.9373 52.9803 39.2513 52.9755 39.5129C52.9755 39.822 52.9324 40.2025 52.8556 40.6069C52.7741 41.0112 52.6782 41.3346 52.5823 41.5344C52.4768 41.7437 52.3185 41.9529 52.0885 42.1765C51.9014 42.362 51.6185 42.5761 51.4603 42.6617C51.302 42.7425 51.0527 42.8424 50.9089 42.8853C50.6931 42.9471 50.3814 42.9614 49.1204 42.9614C47.6387 42.9614 47.6004 42.9614 47.5764 42.8662C47.562 42.8139 47.562 42.7331 47.5764 42.6902C47.5908 42.6427 47.6627 42.5666 47.7442 42.5237C47.821 42.4762 47.9217 42.3906 47.96 42.3335C47.9984 42.2717 48.0367 42.1052 48.0463 41.9625C48.0511 41.8197 48.0367 40.7924 48.0175 39.6793C47.9984 38.5425 47.9552 37.5436 47.9265 37.3961C47.8881 37.1964 47.8258 37.087 47.6771 36.93C47.5141 36.7588 47.4901 36.7064 47.5332 36.6446C47.5812 36.5733 47.7155 36.559 48.4683 36.54C48.9525 36.5257 49.4752 36.5067 49.6238 36.5019ZM49.2738 39.9219L49.2786 41.8197C49.5039 41.9625 49.6334 41.9862 49.8779 41.9862C50.1321 41.9815 50.2759 41.9529 50.4773 41.8626C50.6211 41.796 50.813 41.6771 50.9041 41.6009C50.9951 41.5248 51.1151 41.3632 51.1774 41.2395C51.2398 41.111 51.326 40.8875 51.3644 40.74C51.4076 40.5878 51.4507 40.2501 51.4698 39.9885C51.4843 39.6936 51.4747 39.3892 51.4411 39.1799C51.4076 38.9991 51.3356 38.7423 51.2781 38.6138C51.2205 38.4854 51.0863 38.3047 50.976 38.2095C50.8705 38.1144 50.6644 38.0002 50.5205 37.9527C50.3526 37.9004 50.1178 37.8718 49.8444 37.8718C49.5327 37.8718 49.4081 37.8908 49.3505 37.9479C49.2786 38.0145 49.2738 38.2191 49.2738 39.9219ZM69.8488 36.5305C69.9399 36.54 70.079 36.5828 70.1605 36.6303C70.2372 36.6731 70.3427 36.7825 70.3906 36.8729C70.453 36.9966 70.4722 37.1108 70.4578 37.301C70.4434 37.5294 70.3715 37.6816 69.9447 38.4426C69.6714 38.9278 69.1439 39.8458 68.7699 40.4879C68.3959 41.1301 68.0747 41.6913 68.0603 41.7389C68.0364 41.7913 68.0555 41.834 68.1083 41.8626C68.1562 41.8864 68.4631 41.9197 68.7939 41.9387C69.3453 41.972 69.4125 41.9625 69.6186 41.8721C69.7481 41.8197 69.8968 41.7056 69.9543 41.6295C70.031 41.5297 70.103 41.4868 70.194 41.4868C70.2851 41.4868 70.3475 41.5248 70.3858 41.5962C70.4194 41.6533 70.4434 41.8958 70.4482 42.1575C70.4482 42.4382 70.4242 42.6569 70.3858 42.7282C70.3523 42.7901 70.2804 42.871 70.218 42.909C70.1317 42.9614 69.8104 42.9757 68.5063 42.9661C67.2356 42.9566 66.8664 42.9423 66.7417 42.8853C66.6602 42.8472 66.5451 42.7473 66.4876 42.6664C66.4157 42.5427 66.3965 42.4619 66.4157 42.2954C66.4348 42.167 66.5643 41.8483 66.7465 41.4868C66.9143 41.1587 67.4226 40.2216 67.8733 39.4082C68.3288 38.5901 68.698 37.9099 68.698 37.8956C68.698 37.8814 68.3432 37.8765 67.1109 37.8956L66.8951 38.124C66.78 38.2476 66.6554 38.3475 66.6218 38.3475C66.5931 38.3475 66.5259 38.3237 66.4828 38.2904C66.4157 38.2428 66.3965 38.1144 66.3677 37.6578C66.3438 37.2725 66.3533 37.0299 66.3917 36.911C66.4204 36.8064 66.5019 36.6922 66.5738 36.6494C66.689 36.5733 66.8856 36.559 68.1945 36.5352C69.0097 36.5209 69.7577 36.5162 69.8488 36.5305ZM1.33419 36.54C2.22604 36.54 2.29317 36.5447 2.38428 36.6351C2.46579 36.716 2.47059 36.7445 2.41784 36.8206C2.38908 36.8682 2.29797 36.9919 2.21646 37.0917C2.07261 37.2678 2.07261 37.2725 2.03425 38.1287C2.00548 38.7518 2.01028 39.0039 2.04863 39.0372C2.08699 39.0705 2.12535 39.0515 2.18289 38.9801C2.22604 38.9183 2.47538 38.5234 2.7343 38.1001C2.99802 37.672 3.29052 37.1869 3.39121 37.0157C3.51108 36.8159 3.63095 36.678 3.73645 36.6256C3.86591 36.5543 4.01935 36.54 4.59953 36.54C5.28041 36.54 5.31397 36.5448 5.3811 36.6494C5.42905 36.716 5.43864 36.7874 5.41946 36.8444C5.39548 36.8967 5.25164 37.0347 5.09341 37.1535C4.93517 37.2772 4.70502 37.5055 4.58515 37.6578C4.46048 37.8147 4.21115 38.1905 4.02894 38.4902C3.84673 38.7899 3.62616 39.1323 3.54465 39.2513C3.46314 39.3701 3.38162 39.5176 3.36723 39.5842C3.34806 39.6651 3.38162 39.7792 3.47273 39.9457C3.54465 40.0788 3.7796 40.5022 3.99058 40.8875C4.20155 41.2728 4.47966 41.7342 4.61392 41.9054C4.74338 42.0814 4.97833 42.3145 5.12697 42.4239C5.37631 42.6046 5.40508 42.6427 5.3811 42.9376L4.68584 42.9708C4.19675 42.9898 3.95701 42.9851 3.8707 42.9471C3.80357 42.9137 3.64055 42.7235 3.51108 42.5237C3.37682 42.3192 3.01241 41.7627 2.12535 40.4166L2.0774 40.7971C2.05342 41.0064 2.02945 41.3917 2.02945 41.6581C2.02466 42.1052 2.03425 42.148 2.15412 42.324C2.22605 42.4239 2.33153 42.5618 2.38907 42.6284C2.47059 42.7282 2.48017 42.7663 2.43702 42.8567C2.38428 42.9614 2.37468 42.9614 1.36296 42.9614C0.605362 42.9614 0.332052 42.9471 0.284103 42.9043C0.250538 42.871 0.226562 42.8043 0.226562 42.7616C0.226562 42.714 0.322462 42.5856 0.442335 42.4762C0.562208 42.362 0.686875 42.1956 0.720439 42.1052C0.758798 41.9862 0.773183 41.5439 0.758798 40.6069C0.754003 39.8743 0.730029 38.8564 0.710849 38.3475C0.677284 37.4723 0.667696 37.4057 0.547823 37.1726C0.475899 37.0347 0.394385 36.911 0.37041 36.8967C0.341641 36.8825 0.298487 36.8301 0.274512 36.7778C0.240948 36.7064 0.245742 36.6637 0.303281 36.6113C0.365615 36.5543 0.547822 36.54 1.33419 36.54ZM6.82916 36.54C7.38058 36.54 7.84569 36.559 7.89843 36.5876C7.96237 36.6192 7.99434 36.6827 7.99434 36.7778C7.99434 36.8919 7.95597 36.949 7.80254 37.0537C7.69226 37.1251 7.58676 37.2345 7.56279 37.301C7.54362 37.3676 7.51004 37.9432 7.50046 38.5853C7.48607 39.2274 7.49567 40.0504 7.51484 40.4166C7.53881 40.8209 7.58676 41.1681 7.63472 41.2965C7.67787 41.4154 7.76898 41.5724 7.8409 41.6438C7.91282 41.7199 8.0231 41.8103 8.09023 41.8436C8.15736 41.8768 8.28682 41.9149 8.37793 41.9339C8.46903 41.9529 8.66562 41.9387 8.80949 41.9101C9.01567 41.8674 9.11636 41.8103 9.26975 41.6581C9.38967 41.5439 9.49036 41.3869 9.52393 41.2728C9.55749 41.1491 9.57662 40.4641 9.57662 39.3131C9.57662 37.8195 9.56706 37.5104 9.50471 37.3629C9.46158 37.263 9.34654 37.1013 9.25062 37.0014C9.09236 36.8444 9.07801 36.8111 9.12114 36.6922C9.16906 36.5685 9.18349 36.5638 9.52871 36.5638C9.72532 36.5685 10.2431 36.578 10.6795 36.5876C11.1158 36.6019 12.1803 36.5923 13.053 36.5685C14.4291 36.5352 14.6832 36.54 14.9949 36.6066C15.1915 36.6494 15.4744 36.7398 15.6183 36.8111C15.7717 36.8825 16.0163 37.068 16.1937 37.2487C16.3951 37.4485 16.5629 37.672 16.6587 37.8718C16.7403 38.043 16.8458 38.3189 16.8937 38.4902C16.9657 38.7328 16.98 38.9611 16.98 39.5604C16.9752 40.0694 16.9512 40.4308 16.8985 40.6544C16.8601 40.8399 16.7786 41.1063 16.7258 41.249C16.6731 41.3917 16.5437 41.639 16.443 41.796C16.3423 41.9529 16.1601 42.1765 16.045 42.2907C15.9299 42.4048 15.7238 42.5713 15.5943 42.6522C15.46 42.7378 15.2443 42.8424 15.1148 42.8853C14.9086 42.9566 14.6592 42.9661 13.2927 42.9614C12.1036 42.9614 11.7008 42.9423 11.6768 42.8995C11.6577 42.871 11.6385 42.7996 11.6385 42.7473C11.6385 42.695 11.7248 42.5761 12.046 42.3049L12.0605 40.1455C12.0748 38.0669 12.07 37.9765 11.9693 37.5388C11.8878 37.1964 11.8351 37.0584 11.7391 36.9729C11.6432 36.8825 11.5858 36.8635 11.4706 36.8919C11.3891 36.9062 11.2741 36.9586 11.207 37.0061C11.1398 37.0537 11.0487 37.1678 11.0056 37.2582C10.9288 37.4057 10.9192 37.6055 10.9192 39.2988C10.9192 40.8209 10.9049 41.2299 10.8473 41.4535C10.809 41.6009 10.7274 41.815 10.6699 41.9292C10.6171 42.0386 10.4589 42.2431 10.3246 42.3811C10.176 42.538 9.96028 42.695 9.4568 42.9376H7.73061L7.40455 42.7853C7.22715 42.6998 6.97302 42.5285 6.83876 42.4048C6.7045 42.2764 6.54148 42.0909 6.47914 41.9862C6.41681 41.8817 6.3305 41.6581 6.28735 41.4868C6.21542 41.2205 6.20103 40.916 6.20103 39.3225C6.19624 37.5246 6.19145 37.4628 6.09555 37.2772C6.03801 37.1726 5.93731 37.0157 5.86539 36.9348C5.79826 36.8492 5.73593 36.7493 5.73113 36.716C5.72634 36.6827 5.75031 36.6303 5.78867 36.597C5.83662 36.559 6.14349 36.54 6.82916 36.54ZM13.3694 37.9336C13.3358 37.9717 13.3215 38.6471 13.3167 39.9172C13.3119 41.7152 13.3167 41.8483 13.3982 41.9054C13.4462 41.9339 13.5804 41.9768 13.7003 41.991C13.8202 42.01 14.0216 42.0005 14.1558 41.9672C14.2852 41.9387 14.5011 41.8626 14.6353 41.8007C14.7648 41.7342 14.9565 41.5962 15.0525 41.4916C15.1771 41.3583 15.2682 41.1919 15.3402 40.9541C15.436 40.6497 15.4504 40.5022 15.4504 39.7745C15.4504 38.9801 15.4457 38.9325 15.3258 38.6805C15.2586 38.5377 15.1388 38.3475 15.062 38.2618C14.9853 38.1715 14.8127 38.0479 14.6832 37.986C14.5058 37.9004 14.3428 37.8623 14.0599 37.8528C13.849 37.8385 13.6188 37.8433 13.5469 37.8575C13.4798 37.8671 13.3982 37.9051 13.3694 37.9336ZM19.622 36.54C20.6098 36.5352 20.6864 36.5447 20.8064 36.6351C20.9071 36.7064 20.9742 36.8396 21.0797 37.1726C21.1564 37.4104 21.3818 38.2095 21.5879 38.9421C21.7893 39.6745 22.0818 40.702 22.24 41.2252C22.3983 41.7484 22.5565 42.2384 22.5853 42.3145C22.6189 42.3906 22.7004 42.4904 22.7723 42.5427C22.8538 42.5903 22.9065 42.6712 22.9065 42.7378C22.9065 42.7949 22.8825 42.871 22.849 42.9043C22.8058 42.9471 22.5565 42.9614 21.9524 42.9614C21.2331 42.9661 21.0989 42.9518 21.0365 42.89C20.9742 42.8186 20.9742 42.7902 21.0701 42.5998C21.1325 42.4857 21.1804 42.3049 21.1804 42.2003C21.1804 42.0956 21.1372 41.9244 21.0845 41.8197C21.0318 41.7152 20.9166 41.5819 20.8304 41.5248C20.6913 41.425 20.6145 41.4154 19.9337 41.4012C19.3966 41.3917 19.1569 41.406 19.0706 41.4535C18.9938 41.4916 18.9124 41.6105 18.8404 41.7865C18.7829 41.9339 18.7205 42.148 18.7062 42.2621C18.6774 42.4239 18.6918 42.4904 18.7781 42.6046C18.8357 42.6855 18.8788 42.7901 18.8692 42.8424C18.8548 42.9328 18.8164 42.9376 17.0328 42.9376L17.0184 42.7949C17.004 42.6759 17.0279 42.6331 17.1718 42.5475C17.2678 42.4857 17.3732 42.3811 17.4116 42.3097C17.4451 42.2336 17.5218 41.9625 17.5794 41.7009C17.6369 41.4393 17.7904 40.8637 17.9198 40.4166C18.0541 39.9743 18.2794 39.2227 18.4281 38.7518C18.6007 38.2048 18.7062 37.7767 18.7205 37.5626C18.7445 37.2392 18.7398 37.2202 18.5719 36.9823C18.476 36.8444 18.3945 36.7112 18.3898 36.6874C18.385 36.6589 18.4233 36.6161 18.476 36.5923C18.5288 36.5638 19.0035 36.54 19.622 36.54ZM19.3391 39.9647C19.3151 40.0788 19.3295 40.1645 19.3775 40.2406C19.4494 40.3357 19.4925 40.3453 19.9098 40.3453C20.3029 40.3453 20.3796 40.331 20.4611 40.2501L20.5571 40.1549C20.3317 39.3274 20.1974 38.8612 20.1159 38.5853C20.0391 38.3095 19.9672 38.0763 19.9625 38.0716C19.9577 38.062 19.8234 38.4473 19.6604 38.9278C19.5022 39.4035 19.3535 39.8743 19.3391 39.9647ZM24.4409 36.54C24.8725 36.54 25.0307 36.559 25.1602 36.6256C25.28 36.6827 25.3471 36.7588 25.3855 36.8872C25.4238 36.9919 25.4478 37.3249 25.4478 37.7196C25.4478 38.0763 25.4286 38.766 25.4047 39.2513C25.3759 39.7364 25.3519 40.3785 25.3519 40.6782C25.3519 40.9969 25.3184 41.3536 25.2752 41.5344C25.2369 41.7056 25.1362 41.972 25.0595 42.129C24.9779 42.2859 24.8532 42.4809 24.7765 42.557C24.6998 42.6379 24.5128 42.7616 24.3594 42.8377C24.1437 42.9471 23.9998 42.9804 23.7217 42.9947C23.4867 43.0089 23.3237 42.9947 23.2422 42.9518C23.1798 42.9186 23.0984 42.8043 23.0551 42.6998C23.0024 42.5476 22.9977 42.4762 23.0408 42.3335C23.0887 42.1765 23.1463 42.129 23.4388 41.9768C23.6305 41.8768 23.8224 41.7437 23.8703 41.6771C23.9135 41.6105 23.9902 41.4773 24.0285 41.3822C24.0909 41.2299 24.1052 40.9589 24.1052 39.6936C24.1052 38.5234 24.0861 38.0811 24.0285 37.7291C23.9854 37.4818 23.8991 37.1584 23.8367 37.0157C23.7697 36.8729 23.7169 36.7303 23.7121 36.697C23.7073 36.6637 23.7457 36.6161 23.7984 36.5923C23.8464 36.5638 24.1388 36.5447 24.4409 36.54ZM28.5262 36.5543C29.5427 36.5638 29.6242 36.5685 29.7153 36.6589C29.7777 36.7207 29.9119 37.1013 30.0989 37.7291C30.2571 38.2666 30.5065 39.0895 30.6504 39.5604C30.7942 40.0313 30.9716 40.6544 31.0387 40.9398C31.1058 41.2299 31.1922 41.5581 31.2353 41.6771C31.2737 41.796 31.3265 41.9768 31.3551 42.0813C31.3791 42.186 31.4271 42.3239 31.4607 42.3906C31.5038 42.4857 31.5565 42.5143 31.7292 42.5237C31.8538 42.5285 31.9738 42.5095 32.0121 42.4762C32.0457 42.4429 32.1224 42.3288 32.1751 42.2241C32.2662 42.0386 32.2711 41.9719 32.2423 40.3214C32.2278 39.3797 32.1895 38.3855 32.1607 38.1097C32.1368 37.8338 32.0888 37.4961 32.0648 37.3629C32.0264 37.1678 31.9785 37.0727 31.8491 36.9586C31.7579 36.8729 31.6812 36.7683 31.6812 36.7303C31.6812 36.6922 31.7052 36.6304 31.7388 36.6019C31.7819 36.5543 32.1271 36.54 33.1437 36.54C34.0116 36.54 34.6397 36.5638 34.9178 36.6019C35.1624 36.6399 35.474 36.7255 35.6371 36.7968C35.7953 36.8682 36.0303 37.0061 36.1645 37.106C36.2939 37.2012 36.505 37.4294 36.6296 37.6149C36.7495 37.7957 36.8933 38.0716 36.9461 38.2285C37.0036 38.395 37.0659 38.7756 37.0995 39.1323C37.1378 39.5699 37.1378 39.8839 37.1043 40.2025C37.0755 40.4499 37.0084 40.8066 36.9509 40.9873C36.8981 41.1728 36.7734 41.4583 36.6776 41.6295C36.5817 41.8055 36.3515 42.0909 36.1453 42.3002C35.9104 42.5333 35.6802 42.7092 35.2055 42.9376L32.5923 42.9518C30.2667 42.9661 29.9743 42.9614 29.9167 42.8947C29.8688 42.8329 29.8784 42.7853 29.9551 42.6284C30.0078 42.5237 30.051 42.3572 30.051 42.2621C30.051 42.1623 30.0078 41.9958 29.9598 41.8911C29.9071 41.7865 29.7872 41.6295 29.5235 41.3917H28.9098C28.5741 41.3917 28.2145 41.4154 28.1091 41.444C28.0036 41.4725 27.8597 41.5534 27.783 41.62C27.7111 41.6913 27.6391 41.8245 27.6199 41.9149C27.6056 42.01 27.6295 42.2288 27.6775 42.4382C27.7254 42.6331 27.7494 42.8329 27.7351 42.8805C27.7063 42.9518 27.6247 42.9614 26.8336 42.9518C26.0808 42.9376 25.9561 42.928 25.9082 42.8567C25.865 42.7949 25.8938 42.7331 26.0568 42.5237C26.1671 42.3858 26.3013 42.1575 26.3541 42.0243C26.4117 41.8864 26.4979 41.5724 26.5507 41.3346C26.6082 41.092 26.7712 40.5308 26.9198 40.0836C27.0638 39.6413 27.2795 38.904 27.3946 38.4569C27.5097 38.005 27.6056 37.5959 27.6056 37.5531C27.6056 37.5055 27.5864 37.3914 27.5576 37.301C27.5337 37.2106 27.4569 37.0537 27.3898 36.9586C27.3226 36.8587 27.2651 36.7493 27.2604 36.7112C27.2555 36.6731 27.2939 36.6161 27.3466 36.5923C27.4042 36.559 27.8358 36.5448 28.5262 36.5543ZM33.5512 37.9432C33.5177 37.9765 33.5033 38.5805 33.5033 39.9076C33.5033 40.9589 33.5129 41.8436 33.5273 41.8674C33.5417 41.8958 33.6664 41.9387 33.8006 41.9672C33.9876 42.01 34.1218 42.01 34.3041 41.9672C34.4431 41.9387 34.6445 41.8721 34.75 41.8197C34.8555 41.7674 35.0138 41.6533 35.1 41.5724C35.1864 41.4868 35.3158 41.287 35.3925 41.1301C35.4692 40.9731 35.5604 40.6973 35.5987 40.5118C35.6466 40.2786 35.6658 40.0075 35.6466 39.608C35.6323 39.2084 35.5987 38.9658 35.5364 38.7993C35.4836 38.6709 35.3685 38.4664 35.2774 38.3522C35.1671 38.2191 35.0089 38.1001 34.8219 38.0145C34.6589 37.9384 34.4191 37.8718 34.2705 37.8575C34.1266 37.8481 33.9157 37.8528 33.8054 37.8671C33.6951 37.8814 33.58 37.9194 33.5512 37.9432ZM28.4686 39.0609C28.4159 39.3083 28.32 39.6603 28.2624 39.841L28.157 40.1645C28.3776 40.3357 28.4734 40.35 28.8378 40.3453C29.1591 40.3453 29.2982 40.3262 29.3509 40.2739C29.3941 40.2359 29.4277 40.1645 29.4277 40.1217C29.4277 40.0741 29.3078 39.6413 29.1639 39.1561C29.0249 38.6709 28.8858 38.2238 28.8618 38.1572C28.8235 38.0479 28.8138 38.0573 28.6988 38.3237C28.6317 38.4807 28.5262 38.8136 28.4686 39.0609ZM39.1373 36.5543C40.3169 36.5685 40.7868 36.5923 40.9834 36.6446C41.1272 36.6827 41.3334 36.7541 41.4389 36.8064C41.5444 36.8539 41.717 36.9823 41.8225 37.087C41.9232 37.1916 42.0574 37.3867 42.1198 37.5151C42.1821 37.6483 42.2445 37.9004 42.2637 38.0859C42.278 38.2904 42.2685 38.5425 42.2349 38.728C42.2013 38.8993 42.115 39.1513 42.0478 39.294C41.9759 39.4319 41.8177 39.6413 41.6883 39.7554C41.5636 39.8696 41.3238 40.0313 41.1512 40.1074C40.8683 40.2359 40.8396 40.2643 40.8396 40.3928C40.8396 40.4737 40.9018 40.6354 40.9786 40.7638C41.0505 40.8875 41.2136 41.1681 41.3334 41.3917C41.4533 41.6152 41.6355 41.9101 41.7458 42.0481C41.8561 42.1813 42.0623 42.3811 42.2061 42.4857C42.3499 42.5904 42.4698 42.714 42.4698 42.7616C42.4698 42.8043 42.4458 42.871 42.4123 42.9043C42.3739 42.9423 42.1438 42.9614 41.6355 42.9614C40.9451 42.9661 40.9067 42.9614 40.8108 42.8567C40.758 42.7949 40.4368 42.2669 40.0964 41.6771C39.7607 41.0873 39.449 40.5688 39.4058 40.5212C39.3627 40.4689 39.2908 40.4118 39.2428 40.3881C39.1661 40.35 39.1613 40.4023 39.1757 41.2395C39.1853 41.9529 39.2045 42.1575 39.2668 42.2717C39.3099 42.3525 39.4106 42.4619 39.4922 42.5237C39.5784 42.5856 39.6408 42.6712 39.6408 42.7378C39.6456 42.7949 39.6168 42.871 39.5832 42.8995C39.5353 42.9423 39.2477 42.9566 37.4111 42.9376L37.3968 42.8092C37.392 42.7045 37.4399 42.6284 37.6222 42.4524C37.8187 42.2574 37.8619 42.186 37.8906 41.9862C37.9098 41.8578 37.9098 40.8494 37.8906 39.7507C37.8763 38.6519 37.8427 37.6483 37.8187 37.5151C37.7899 37.3867 37.718 37.2012 37.6558 37.1108C37.5886 37.0204 37.4975 36.8825 37.4544 36.8016C37.3824 36.6684 37.3824 36.6541 37.4639 36.597C37.5358 36.5447 37.8763 36.54 39.1373 36.5543ZM39.2572 37.8147C39.1709 37.9336 39.1613 37.9955 39.1805 38.5615C39.1949 39.0134 39.2189 39.1894 39.2668 39.2132C39.3004 39.2322 39.4682 39.2607 39.6408 39.2798C39.8134 39.2988 40.0724 39.2988 40.2162 39.2798C40.36 39.2607 40.5423 39.2084 40.6238 39.1656C40.7004 39.118 40.806 39.0086 40.8491 38.9183C40.8971 38.8279 40.9354 38.6519 40.9354 38.5283C40.9354 38.3998 40.9115 38.2428 40.8827 38.1715C40.8539 38.0954 40.7868 37.9908 40.7292 37.9289C40.6718 37.8671 40.5135 37.791 40.384 37.7529C40.2498 37.7149 40.0148 37.6768 39.8566 37.6625C39.6984 37.653 39.521 37.653 39.4634 37.6673C39.4058 37.6768 39.3148 37.7434 39.2572 37.8147ZM43.75 36.54C44.2583 36.54 44.7234 36.559 44.781 36.5828C44.8433 36.6019 44.9057 36.6541 44.9248 36.7017C44.9536 36.7541 44.9152 36.8444 44.8098 36.9823C44.7282 37.0917 44.6324 37.2678 44.5939 37.3724C44.5556 37.4913 44.5124 37.9669 44.4837 38.6329C44.4597 39.2227 44.4358 40.1978 44.4358 40.7971C44.4358 41.4535 44.4597 41.9672 44.4885 42.0813C44.522 42.205 44.6275 42.3525 44.7762 42.5C44.9057 42.6237 45.0111 42.7521 45.0111 42.7853C45.0159 42.8139 44.9871 42.871 44.9536 42.8995C44.9057 42.9423 44.6131 42.9566 42.7335 42.9376L42.7191 42.7853C42.7096 42.6522 42.7335 42.6094 42.8774 42.5237C42.9685 42.4619 43.0691 42.362 43.1027 42.3002C43.1507 42.2098 43.1603 41.7009 43.1507 39.9219C43.1411 38.181 43.1219 37.6007 43.0691 37.42C43.0308 37.2915 42.9253 37.087 42.8342 36.968C42.7384 36.8492 42.6568 36.7303 42.652 36.697C42.6472 36.6637 42.6856 36.6161 42.7384 36.5923C42.7911 36.5638 43.2226 36.5447 43.75 36.54ZM54.8167 36.5447C55.5551 36.54 56.3559 36.5638 56.5909 36.5923C56.8258 36.6209 57.1279 36.6827 57.2621 36.735C57.3916 36.7825 57.6074 36.911 57.732 37.0251C57.8615 37.1393 58.0198 37.339 58.0821 37.4675C58.1444 37.6007 58.2211 37.8385 58.2451 38.005C58.2786 38.2 58.2786 38.3998 58.2451 38.5995C58.2164 38.7613 58.13 39.0324 58.0485 39.2037C57.967 39.3749 57.8471 39.5794 57.78 39.6555C57.7129 39.7364 57.5786 39.8553 57.4827 39.9266C57.3868 39.998 57.1902 40.0931 57.0464 40.1455C56.8833 40.2025 56.7778 40.2643 56.7683 40.312C56.7635 40.3595 56.9505 40.7305 57.1854 41.1444C57.4204 41.5534 57.6985 42.0005 57.7991 42.1384C57.8998 42.2717 58.0438 42.4286 58.1252 42.4809C58.2019 42.5333 58.341 42.5808 58.4225 42.5808C58.5088 42.5808 58.6431 42.5475 58.7246 42.5095C58.8013 42.4714 58.902 42.3763 58.9404 42.2954C59.0027 42.1765 59.0123 41.8483 59.0123 40.2643C59.0075 39.2227 58.9931 38.1573 58.9691 37.8956C58.9404 37.5151 58.9068 37.3771 58.8109 37.2059C58.7438 37.087 58.6383 36.949 58.5856 36.8967C58.528 36.8444 58.48 36.7731 58.4849 36.7445C58.4849 36.7112 58.5184 36.6494 58.5616 36.6113C58.6239 36.5543 58.8109 36.54 59.6404 36.54C60.4651 36.54 60.657 36.5543 60.7145 36.6113C60.7529 36.6494 60.7864 36.7255 60.7864 36.7778C60.7864 36.8301 60.748 36.9062 60.7001 36.949C60.657 36.9919 60.5802 37.049 60.5323 37.068C60.4891 37.0917 60.4316 37.1916 60.4028 37.2915C60.374 37.3962 60.3549 38.4093 60.3549 39.8125C60.3549 41.7246 60.3692 42.1765 60.422 42.2859C60.4604 42.3572 60.5563 42.4619 60.6378 42.5237C60.748 42.5998 60.7864 42.6664 60.7864 42.7711C60.7864 42.852 60.772 42.9233 60.748 42.9328C60.7289 42.9423 59.8562 42.9614 56.9025 42.9851L56.7875 42.8662C56.7251 42.7996 56.3751 42.2241 56.0106 41.5819C55.6511 40.9398 55.325 40.3833 55.2866 40.3453C55.2339 40.2834 55.2243 40.4308 55.2243 42.2717L55.4401 42.5C55.5599 42.6237 55.6558 42.7378 55.6558 42.7616C55.6558 42.7806 55.6271 42.8377 55.5887 42.89C55.5216 42.9804 55.4737 42.9851 54.4715 42.9708C53.8961 42.9614 53.4118 42.9423 53.3878 42.9328C53.3686 42.9233 53.3543 42.852 53.3543 42.7711C53.3543 42.6617 53.3974 42.5951 53.5557 42.4762C53.6707 42.3858 53.7906 42.2336 53.8434 42.1194C53.9249 41.9244 53.9249 41.8055 53.8818 39.9552C53.8578 38.8754 53.8242 37.8623 53.8146 37.7053C53.805 37.5436 53.7571 37.339 53.6995 37.2297C53.6468 37.1251 53.5461 36.9871 53.479 36.9205C53.4071 36.8539 53.3495 36.7541 53.3447 36.697C53.3399 36.6399 53.3686 36.5828 53.4071 36.5733C53.4406 36.559 54.0783 36.5447 54.8167 36.5447ZM55.2339 37.8481C55.1907 37.9336 55.1859 38.1144 55.2099 38.5283C55.2387 38.9468 55.2626 39.1085 55.325 39.1799C55.3969 39.2655 55.4688 39.275 55.8812 39.275C56.2552 39.275 56.3895 39.256 56.5381 39.1799C56.6436 39.1276 56.7731 39.0229 56.8258 38.9515C56.8881 38.866 56.9313 38.7232 56.9409 38.571C56.9504 38.3998 56.9265 38.2714 56.869 38.1572C56.821 38.0669 56.7059 37.9432 56.6148 37.8814C56.5238 37.8243 56.3703 37.7529 56.2791 37.7291C56.1881 37.7006 55.9819 37.672 55.8237 37.6578C55.6654 37.6483 55.4832 37.6578 55.4161 37.6816C55.349 37.7053 55.2675 37.7814 55.2339 37.8481ZM63.3278 36.54C64.8477 36.54 64.8909 36.5448 65.0971 36.6494C65.2649 36.7303 65.332 36.8016 65.4039 36.968C65.4663 37.1203 65.4854 37.2297 65.4615 37.3486C65.4471 37.439 65.332 37.6959 65.2073 37.9194C65.0874 38.143 64.5696 39.0515 64.0565 39.9409C63.5435 40.8304 63.0976 41.5915 63.0592 41.6295C63.0257 41.6676 62.9921 41.7389 62.9921 41.7865C62.9921 41.8293 63.0208 41.8816 63.0496 41.9007C63.0831 41.9149 63.39 41.9387 63.7353 41.9435C64.0758 41.9529 64.4353 41.9387 64.5265 41.9149C64.6176 41.8911 64.7806 41.7864 64.8861 41.6771C64.9916 41.5724 65.1162 41.4868 65.1594 41.4868C65.2073 41.4868 65.284 41.5439 65.3272 41.62C65.3895 41.7152 65.4087 41.8531 65.4135 42.1527C65.4135 42.4143 65.3895 42.6141 65.3416 42.7188C65.3032 42.8043 65.2265 42.8995 65.1738 42.928C65.1162 42.9518 64.4114 42.9708 63.3997 42.9661C61.7262 42.9614 61.7214 42.9614 61.6111 42.8567C61.5296 42.7759 61.496 42.6759 61.4769 42.4619C61.4577 42.2717 61.4769 42.1004 61.5248 41.9387C61.568 41.8103 61.9085 41.1348 62.2777 40.4404C62.6517 39.7459 63.1071 38.9183 63.2845 38.5995C63.4668 38.2761 63.6058 37.9812 63.5914 37.9432C63.5723 37.8861 63.4524 37.8718 62.8962 37.8718C62.4263 37.8718 62.1865 37.8908 62.0906 37.9384C62.0187 37.9717 61.894 38.0811 61.8173 38.1763C61.7214 38.2952 61.6399 38.3475 61.5776 38.3379C61.5248 38.3285 61.4577 38.2714 61.4241 38.2048C61.3858 38.1287 61.3618 37.8861 61.3618 37.5388C61.3618 37.0774 61.3762 36.968 61.4577 36.8301C61.5105 36.7398 61.6016 36.6351 61.6591 36.6019C61.7454 36.5543 62.1434 36.54 63.3278 36.54ZM71.9921 36.54C72.51 36.54 72.7114 36.559 72.8217 36.6113C72.9176 36.6589 72.9847 36.7398 73.0183 36.8635C73.0566 36.9871 73.0662 37.7529 73.0566 39.4272C73.0422 41.3442 73.0518 41.8293 73.0998 41.8768C73.1429 41.9197 73.3107 41.9387 73.6511 41.9339C73.9197 41.9339 74.2601 41.9007 74.404 41.8674C74.5574 41.8293 74.73 41.7437 74.8116 41.6676C74.8883 41.5915 74.9985 41.5344 75.0513 41.5344C75.104 41.5344 75.1759 41.5581 75.2095 41.5915C75.2479 41.6342 75.2671 41.8103 75.2671 42.1432C75.2671 42.4096 75.2815 42.6284 75.3006 42.6284C75.3246 42.6284 75.4158 42.5808 75.5068 42.5237C75.5979 42.4619 75.7226 42.3382 75.8952 42.0813L75.8904 37.5626L75.7753 37.3249C75.713 37.1964 75.6027 37.0109 75.5356 36.9205C75.4637 36.8301 75.4109 36.7255 75.4109 36.697C75.4109 36.6637 75.4541 36.6161 75.5068 36.5876C75.5644 36.559 76.274 36.54 77.3289 36.54C78.6091 36.54 79.0886 36.5543 79.1798 36.6019C79.2517 36.6304 79.3379 36.716 79.3715 36.7921C79.4195 36.8825 79.4386 37.1155 79.4386 37.5769C79.4386 38.024 79.4243 38.2476 79.3811 38.2904C79.3476 38.3189 79.29 38.3475 79.2469 38.3475C79.2085 38.3522 79.0886 38.2856 78.9831 38.2048C78.8777 38.1239 78.6523 38.0145 78.4797 37.9622C78.3071 37.9099 78.0145 37.8528 77.8324 37.8385C77.5638 37.8147 77.4727 37.8243 77.233 37.9669V39.2037L77.4104 39.2513C77.5111 39.275 77.7077 39.2988 77.8419 39.2988C78.0769 39.2988 78.1105 39.2845 78.3118 39.0848C78.4318 38.9658 78.5372 38.8707 78.5516 38.8707C78.566 38.8707 78.6283 38.8993 78.6954 38.9325C78.7625 38.9611 78.8201 38.9991 78.8201 39.0134C78.8249 39.0277 78.8297 39.4082 78.8345 39.86C78.8345 40.3167 78.8297 40.702 78.8153 40.721C78.8009 40.7448 78.7434 40.7828 78.6811 40.8161C78.6235 40.8447 78.542 40.8589 78.5037 40.8447C78.4653 40.8304 78.4221 40.7781 78.4078 40.7257C78.3933 40.6734 78.3166 40.5688 78.2399 40.4879C78.1152 40.3643 78.0578 40.3453 77.8419 40.3453C77.7077 40.3453 77.5207 40.3595 77.4296 40.3785C77.3432 40.4023 77.2522 40.4499 77.2378 40.4879C77.2186 40.5259 77.2186 40.8067 77.2378 41.1063C77.2713 41.5724 77.2905 41.6676 77.3768 41.7484C77.4631 41.834 77.5543 41.8436 78.1345 41.8626C78.7146 41.8768 78.8153 41.8674 78.9831 41.7817C79.0886 41.7294 79.2325 41.6105 79.3044 41.5154C79.3811 41.4203 79.4674 41.3442 79.4962 41.3442C79.5298 41.3442 79.6017 41.3869 79.6545 41.444C79.7311 41.5248 79.7552 41.6248 79.7695 42.0053C79.7791 42.2574 79.7599 42.5475 79.7359 42.6522C79.7024 42.7663 79.64 42.8662 79.5729 42.9043C79.5105 42.9376 79.3955 42.9661 79.3188 42.9661C79.2372 42.9661 77.9331 42.9566 76.4178 42.9376C74.8978 42.9186 73.1525 42.928 72.5339 42.9518C71.9154 42.9757 71.3688 42.9757 71.3209 42.9566C71.2777 42.9328 71.225 42.8662 71.2105 42.8092C71.1866 42.7188 71.225 42.6617 71.6469 42.3049V39.96C71.6469 38.005 71.6325 37.5722 71.575 37.3771C71.5366 37.2487 71.4216 37.049 71.3209 36.9348C71.225 36.8206 71.1386 36.7112 71.1338 36.6874C71.1291 36.6589 71.1674 36.6161 71.2202 36.5923C71.2681 36.5638 71.6181 36.5447 71.9921 36.54ZM34.702 7.42981H37.4351V10.1886H34.702V7.42981ZM38.6338 7.42981H41.4101L41.391 10.1649L38.6338 10.1886V7.42981ZM34.702 11.2826H37.4351V14.0415H34.702V11.2826ZM38.6338 11.2826H41.4101L41.391 14.0177L38.6338 14.0415V11.2826Z" fill="white"/>
</g>
<defs>
<clipPath id="clip0_218_730">
<rect width="80" height="43" fill="white"/>
</clipPath>
</defs>
</svg>
